<svg width="18" height="18" viewBox="0 0 18 18" fill="none" xmlns="http://www.w3.org/2000/svg">
<path d="M7.40002 8.05002C7.44169 7.77502 7.53335 7.53335 7.65002 7.33335C7.90002 6.86669 8.32502 6.62502 8.90002 6.61669C9.27502 6.61669 9.61669 6.78335 9.85835 7.02502C10.0917 7.28335 10.25 7.64169 10.25 8.00002H11.75C11.7334 7.60835 11.6584 7.25002 11.5 6.91669C11.375 6.60002 11.1834 6.31669 10.9334 6.08335C9.72502 4.96669 7.48335 5.12502 6.45835 6.39169C5.38335 7.78335 5.35835 10.2167 6.45002 11.6084C7.45835 12.85 9.66669 13.025 10.8667 11.9167C11.125 11.7084 11.3334 11.45 11.5 11.15C11.6334 10.85 11.725 10.5334 11.7334 10.1917H10.25C10.25 10.3667 10.1917 10.525 10.1167 10.6667C10.0417 10.825 9.94169 10.95 9.83335 11.0584C9.55835 11.275 9.23335 11.3917 8.88335 11.3917C8.58335 11.3834 8.33335 11.325 8.14169 11.2C7.93335 11.0834 7.75002 10.8917 7.65002 10.6667C7.23335 9.91669 7.30002 8.87502 7.40002 8.05002ZM9.00002 0.666687C4.41669 0.666687 0.666687 4.41669 0.666687 9.00002C1.10835 20.0584 16.9167 20.05 17.3334 9.00002C17.3334 4.41669 13.5834 0.666687 9.00002 0.666687ZM9.00002 15.6667C5.32502 15.6667 2.33335 12.675 2.33335 9.00002C2.70002 0.158354 15.3 0.158354 15.6667 9.00002C15.6667 12.675 12.675 15.6667 9.00002 15.6667Z" fill="black"/>
</svg>
