<svg width="32" height="32" viewBox="0 0 32 32" fill="none" xmlns="http://www.w3.org/2000/svg">
<path d="M26.6668 0H5.33322C3.91871 0 2.56227 0.561825 1.56205 1.56205C0.561825 2.56227 0 3.91871 0 5.33322V26.6668C0 28.0813 0.561825 29.4377 1.56205 30.438C2.56227 31.4382 3.91871 32 5.33322 32H26.6668C28.0813 32 29.4377 31.4382 30.438 30.438C31.4382 29.4377 32 28.0813 32 26.6668V5.33322C32 3.91871 31.4382 2.56227 30.438 1.56205C29.4377 0.561825 28.0813 0 26.6668 0V0ZM29.3335 26.6667H29.3333C29.3333 27.3738 29.0525 28.0521 28.5523 28.5521C28.0523 29.0524 27.3739 29.3332 26.6668 29.3332H5.33322C4.62609 29.3332 3.94775 29.0524 3.44775 28.5521C2.94753 28.0521 2.66673 27.3738 2.66673 26.6667V5.3331C2.66673 4.62597 2.94753 3.94763 3.44775 3.44763C3.94775 2.94741 4.62609 2.66661 5.33322 2.66661H26.6668C27.3739 2.66661 28.0523 2.94741 28.5523 3.44763C29.0525 3.94763 29.3333 4.62597 29.3333 5.3331L29.3335 26.6667Z" fill="#ABD1C6"/>
<path d="M15.9999 8C13.8783 8 11.8435 8.84285 10.3431 10.3431C8.84285 11.8435 8 13.8783 8 15.9999C8 18.1216 8.84285 20.1564 10.3431 21.6568C11.8435 23.157 13.8783 23.9999 15.9999 23.9999C18.1216 23.9999 20.1564 23.157 21.6568 21.6568C23.157 20.1564 23.9999 18.1216 23.9999 15.9999C23.9999 13.8783 23.157 11.8435 21.6568 10.3431C20.1564 8.84285 18.1216 8 15.9999 8ZM15.9999 21.333C14.5854 21.333 13.229 20.7712 12.2288 19.771C11.2285 18.7708 10.6667 17.4143 10.6667 15.9998C10.6667 14.5853 11.2285 13.2289 12.2288 12.2287C13.229 11.2284 14.5854 10.6666 15.9999 10.6666C17.4144 10.6666 18.7709 11.2284 19.7711 12.2287C20.7713 13.2289 21.3332 14.5853 21.3332 15.9998C21.3332 17.4143 20.7713 18.7708 19.7711 19.771C18.7709 20.7712 17.4144 21.333 15.9999 21.333Z" fill="#ABD1C6"/>
<path d="M26.6667 7.33312C26.6667 8.43779 25.7712 9.3331 24.6667 9.3331C23.5621 9.3331 22.6667 8.43779 22.6667 7.33312C22.6667 6.22867 23.5621 5.33313 24.6667 5.33313C25.7712 5.33313 26.6667 6.22867 26.6667 7.33312Z" fill="#ABD1C6"/>
</svg>
